<svg fill="none" height="34" width="39" xmlns="http://www.w3.org/2000/svg"><radialGradient id="b" cx="0" cy="0" gradientTransform="matrix(3.98157 3.48039 -7.05398 8.06977 17.4 11.4)" gradientUnits="userSpaceOnUse" r="1"><stop offset="0" stop-color="#fff" stop-opacity=".6"/><stop offset="1" stop-color="#fff" stop-opacity="0"/></radialGradient><radialGradient id="c" cx="0" cy="0" gradientTransform="matrix(4.39922 3.45253 -18.07402 23.02995 11.1 5.3)" gradientUnits="userSpaceOnUse" r="1"><stop offset="0" stop-color="#fff" stop-opacity=".6"/><stop offset="1" stop-color="#fff" stop-opacity="0"/></radialGradient><radialGradient id="e" cx="0" cy="0" gradientTransform="matrix(-.44549 -3.50824 10.88082 -1.38169 24.7 25.6)" gradientUnits="userSpaceOnUse" r="1"><stop offset="0" stop-opacity=".3"/><stop offset="1" stop-opacity="0"/></radialGradient><linearGradient id="d" gradientUnits="userSpaceOnUse" x1="29.5" x2="29.1" y1="32.7" y2="27.5"><stop offset="0" stop-opacity=".3"/><stop offset="1" stop-color="#fff" stop-opacity="0"/></linearGradient><filter id="a" color-interpolation-filters="sRGB" filterUnits="userSpaceOnUse" height="34" width="38" x=".7" y="0"><feFlood flood-opacity="0" result="BackgroundImageFix"/><feColorMatrix in="SourceAlpha" result="hardAlpha" values="0 0 0 0 0 0 0 0 0 0 0 0 0 0 0 0 0 0 127 0"/><feOffset dy=".3"/><feGaussianBlur stdDeviation=".1"/><feComposite in2="hardAlpha" operator="out"/><feColorMatrix values="0 0 0 0 0.113725 0 0 0 0 0.113725 0 0 0 0 0.113725 0 0 0 0.08 0"/><feBlend in2="BackgroundImageFix" result="effect1_dropShadow"/><feBlend in="SourceGraphic" in2="effect1_dropShadow" result="shape"/><feColorMatrix in="SourceAlpha" result="hardAlpha" values="0 0 0 0 0 0 0 0 0 0 0 0 0 0 0 0 0 0 127 0"/><feOffset dy=".4"/><feGaussianBlur stdDeviation=".4"/><feComposite in2="hardAlpha" k2="-1" k3="1" operator="arithmetic"/><feColorMatrix values="0 0 0 0 0.982879 0 0 0 0 0.534896 0 0 0 0 0.990104 0 0 0 1 0"/><feBlend in2="shape" result="effect2_innerShadow"/></filter><g clip-rule="evenodd" fill-rule="evenodd" filter="url(#a)"><path d="M33 21.3a2.8 2.8 0 0 1 0 2.8l-2 3.4a2.8 2.8 0 0 1-2.4 1.4H11a2.8 2.8 0 0 1-2.4-1.3L6.5 24a2.8 2.8 0 0 1 0-2.8l8.9-15.4a2.8 2.8 0 0 1 2.4-1.3h3.9c1 0 1.9.5 2.4 1.3l9 15.5zM12.7 1.6A3.3 3.3 0 0 1 15.5 0H24c1.2 0 2.3.6 2.9 1.6L38 21.1a3.3 3.3 0 0 1 0 3.3l-4.3 7.3a3.3 3.3 0 0 1-2.8 1.7H8.7a3.3 3.3 0 0 1-2.8-1.6l-4.4-7.5a3.3 3.3 0 0 1 0-3.4zm6.4 7a2 2 0 0 0-1.7 1l-6.9 10.9a2 2 0 0 0 0 1.8l.9 2.3a2 2 0 0 0 1.8 1.2h13.2a2 2 0 0 0 1.8-1.2l1-2.2a2 2 0 0 0-.2-1.8l-6.8-11a2 2 0 0 0-1.7-1H19z" fill="#c843cb"/><path d="M33 21.3a2.8 2.8 0 0 1 0 2.8l-2 3.4a2.8 2.8 0 0 1-2.4 1.4H11a2.8 2.8 0 0 1-2.4-1.3L6.5 24a2.8 2.8 0 0 1 0-2.8l8.9-15.4a2.8 2.8 0 0 1 2.4-1.3h3.9c1 0 1.9.5 2.4 1.3l9 15.5zM12.7 1.6A3.3 3.3 0 0 1 15.5 0H24c1.2 0 2.3.6 2.9 1.6L38 21.1a3.3 3.3 0 0 1 0 3.3l-4.3 7.3a3.3 3.3 0 0 1-2.8 1.7H8.7a3.3 3.3 0 0 1-2.8-1.6l-4.4-7.5a3.3 3.3 0 0 1 0-3.4zm6.4 7a2 2 0 0 0-1.7 1l-6.9 10.9a2 2 0 0 0 0 1.8l.9 2.3a2 2 0 0 0 1.8 1.2h13.2a2 2 0 0 0 1.8-1.2l1-2.2a2 2 0 0 0-.2-1.8l-6.8-11a2 2 0 0 0-1.7-1H19z" fill="url(#b)" fill-opacity=".8"/><path d="M33 21.3a2.8 2.8 0 0 1 0 2.8l-2 3.4a2.8 2.8 0 0 1-2.4 1.4H11a2.8 2.8 0 0 1-2.4-1.3L6.5 24a2.8 2.8 0 0 1 0-2.8l8.9-15.4a2.8 2.8 0 0 1 2.4-1.3h3.9c1 0 1.9.5 2.4 1.3l9 15.5zM12.7 1.6A3.3 3.3 0 0 1 15.5 0H24c1.2 0 2.3.6 2.9 1.6L38 21.1a3.3 3.3 0 0 1 0 3.3l-4.3 7.3a3.3 3.3 0 0 1-2.8 1.7H8.7a3.3 3.3 0 0 1-2.8-1.6l-4.4-7.5a3.3 3.3 0 0 1 0-3.4zm6.4 7a2 2 0 0 0-1.7 1l-6.9 10.9a2 2 0 0 0 0 1.8l.9 2.3a2 2 0 0 0 1.8 1.2h13.2a2 2 0 0 0 1.8-1.2l1-2.2a2 2 0 0 0-.2-1.8l-6.8-11a2 2 0 0 0-1.7-1H19z" fill="url(#c)" fill-opacity=".7"/><path d="M33 21.3a2.8 2.8 0 0 1 0 2.8l-2 3.4a2.8 2.8 0 0 1-2.4 1.4H11a2.8 2.8 0 0 1-2.4-1.3L6.5 24a2.8 2.8 0 0 1 0-2.8l8.9-15.4a2.8 2.8 0 0 1 2.4-1.3h3.9c1 0 1.9.5 2.4 1.3l9 15.5zM12.7 1.6A3.3 3.3 0 0 1 15.5 0H24c1.2 0 2.3.6 2.9 1.6L38 21.1a3.3 3.3 0 0 1 0 3.3l-4.3 7.3a3.3 3.3 0 0 1-2.8 1.7H8.7a3.3 3.3 0 0 1-2.8-1.6l-4.4-7.5a3.3 3.3 0 0 1 0-3.4zm6.4 7a2 2 0 0 0-1.7 1l-6.9 10.9a2 2 0 0 0 0 1.8l.9 2.3a2 2 0 0 0 1.8 1.2h13.2a2 2 0 0 0 1.8-1.2l1-2.2a2 2 0 0 0-.2-1.8l-6.8-11a2 2 0 0 0-1.7-1H19z" fill="url(#d)" fill-opacity=".9"/><path d="M33 21.3a2.8 2.8 0 0 1 0 2.8l-2 3.4a2.8 2.8 0 0 1-2.4 1.4H11a2.8 2.8 0 0 1-2.4-1.3L6.5 24a2.8 2.8 0 0 1 0-2.8l8.9-15.4a2.8 2.8 0 0 1 2.4-1.3h3.9c1 0 1.9.5 2.4 1.3l9 15.5zM12.7 1.6A3.3 3.3 0 0 1 15.5 0H24c1.2 0 2.3.6 2.9 1.6L38 21.1a3.3 3.3 0 0 1 0 3.3l-4.3 7.3a3.3 3.3 0 0 1-2.8 1.7H8.7a3.3 3.3 0 0 1-2.8-1.6l-4.4-7.5a3.3 3.3 0 0 1 0-3.4zm6.4 7a2 2 0 0 0-1.7 1l-6.9 10.9a2 2 0 0 0 0 1.8l.9 2.3a2 2 0 0 0 1.8 1.2h13.2a2 2 0 0 0 1.8-1.2l1-2.2a2 2 0 0 0-.2-1.8l-6.8-11a2 2 0 0 0-1.7-1H19z" fill="url(#e)" fill-opacity=".6"/></g></svg>