<svg width="136" height="38" viewBox="0 0 136 38" fill="none" xmlns="http://www.w3.org/2000/svg">
<g filter="url(#filter0_di)">
<path fill-rule="evenodd" clip-rule="evenodd" d="M30.6114 22.0408C31.0151 22.7489 31.0143 23.6177 30.6094 24.3251L28.9965 27.1422C28.5863 27.8587 27.824 28.3007 26.9984 28.3007H12.7084C11.8887 28.3007 11.1307 27.8648 10.7184 27.1563L9.01765 24.2335C8.60351 23.5218 8.60095 22.6432 9.01094 21.9291L16.2608 9.30176C16.6714 8.58669 17.433 8.14575 18.2576 8.14575H21.3519C22.179 8.14575 22.9425 8.58934 23.3521 9.30782L30.6114 22.0408ZM14.0668 5.82299C14.5452 4.98974 15.4253 4.47705 16.3772 4.47705H23.2388C24.1937 4.47705 25.076 4.99286 25.5534 5.83014L34.6763 21.832C35.1544 22.6705 35.1535 23.7038 34.6739 24.5414L31.1935 30.6205C30.7155 31.4554 29.8345 31.9694 28.8814 31.9694H10.8408C9.89439 31.9694 9.01859 31.4626 8.53821 30.6371L4.94362 24.4599C4.45328 23.6173 4.45025 22.5723 4.93571 21.7268L14.0668 5.82299ZM19.2926 11.5394C18.726 11.5394 18.2001 11.8333 17.9031 12.3158L12.3396 21.356C12.0616 21.8077 12.0205 22.3664 12.2295 22.854L13.0301 24.7212C13.2872 25.3209 13.877 25.7098 14.5295 25.7098H25.2119C25.8704 25.7098 26.4644 25.3139 26.7178 24.7061L27.4745 22.8911C27.6758 22.4083 27.6333 21.8581 27.3603 21.4119L21.7978 12.3195C21.5013 11.8349 20.9741 11.5394 20.4061 11.5394H19.2926Z" fill="#C843CB"/>
<path fill-rule="evenodd" clip-rule="evenodd" d="M30.6114 22.0408C31.0151 22.7489 31.0143 23.6177 30.6094 24.3251L28.9965 27.1422C28.5863 27.8587 27.824 28.3007 26.9984 28.3007H12.7084C11.8887 28.3007 11.1307 27.8648 10.7184 27.1563L9.01765 24.2335C8.60351 23.5218 8.60095 22.6432 9.01094 21.9291L16.2608 9.30176C16.6714 8.58669 17.433 8.14575 18.2576 8.14575H21.3519C22.179 8.14575 22.9425 8.58934 23.3521 9.30782L30.6114 22.0408ZM14.0668 5.82299C14.5452 4.98974 15.4253 4.47705 16.3772 4.47705H23.2388C24.1937 4.47705 25.076 4.99286 25.5534 5.83014L34.6763 21.832C35.1544 22.6705 35.1535 23.7038 34.6739 24.5414L31.1935 30.6205C30.7155 31.4554 29.8345 31.9694 28.8814 31.9694H10.8408C9.89439 31.9694 9.01859 31.4626 8.53821 30.6371L4.94362 24.4599C4.45328 23.6173 4.45025 22.5723 4.93571 21.7268L14.0668 5.82299ZM19.2926 11.5394C18.726 11.5394 18.2001 11.8333 17.9031 12.3158L12.3396 21.356C12.0616 21.8077 12.0205 22.3664 12.2295 22.854L13.0301 24.7212C13.2872 25.3209 13.877 25.7098 14.5295 25.7098H25.2119C25.8704 25.7098 26.4644 25.3139 26.7178 24.7061L27.4745 22.8911C27.6758 22.4083 27.6333 21.8581 27.3603 21.4119L21.7978 12.3195C21.5013 11.8349 20.9741 11.5394 20.4061 11.5394H19.2926Z" fill="url(#paint0_radial)" fill-opacity="0.8"/>
<path fill-rule="evenodd" clip-rule="evenodd" d="M30.6114 22.0408C31.0151 22.7489 31.0143 23.6177 30.6094 24.3251L28.9965 27.1422C28.5863 27.8587 27.824 28.3007 26.9984 28.3007H12.7084C11.8887 28.3007 11.1307 27.8648 10.7184 27.1563L9.01765 24.2335C8.60351 23.5218 8.60095 22.6432 9.01094 21.9291L16.2608 9.30176C16.6714 8.58669 17.433 8.14575 18.2576 8.14575H21.3519C22.179 8.14575 22.9425 8.58934 23.3521 9.30782L30.6114 22.0408ZM14.0668 5.82299C14.5452 4.98974 15.4253 4.47705 16.3772 4.47705H23.2388C24.1937 4.47705 25.076 4.99286 25.5534 5.83014L34.6763 21.832C35.1544 22.6705 35.1535 23.7038 34.6739 24.5414L31.1935 30.6205C30.7155 31.4554 29.8345 31.9694 28.8814 31.9694H10.8408C9.89439 31.9694 9.01859 31.4626 8.53821 30.6371L4.94362 24.4599C4.45328 23.6173 4.45025 22.5723 4.93571 21.7268L14.0668 5.82299ZM19.2926 11.5394C18.726 11.5394 18.2001 11.8333 17.9031 12.3158L12.3396 21.356C12.0616 21.8077 12.0205 22.3664 12.2295 22.854L13.0301 24.7212C13.2872 25.3209 13.877 25.7098 14.5295 25.7098H25.2119C25.8704 25.7098 26.4644 25.3139 26.7178 24.7061L27.4745 22.8911C27.6758 22.4083 27.6333 21.8581 27.3603 21.4119L21.7978 12.3195C21.5013 11.8349 20.9741 11.5394 20.4061 11.5394H19.2926Z" fill="url(#paint1_radial)" fill-opacity="0.7"/>
<path fill-rule="evenodd" clip-rule="evenodd" d="M30.6114 22.0408C31.0151 22.7489 31.0143 23.6177 30.6094 24.3251L28.9965 27.1422C28.5863 27.8587 27.824 28.3007 26.9984 28.3007H12.7084C11.8887 28.3007 11.1307 27.8648 10.7184 27.1563L9.01765 24.2335C8.60351 23.5218 8.60095 22.6432 9.01094 21.9291L16.2608 9.30176C16.6714 8.58669 17.433 8.14575 18.2576 8.14575H21.3519C22.179 8.14575 22.9425 8.58934 23.3521 9.30782L30.6114 22.0408ZM14.0668 5.82299C14.5452 4.98974 15.4253 4.47705 16.3772 4.47705H23.2388C24.1937 4.47705 25.076 4.99286 25.5534 5.83014L34.6763 21.832C35.1544 22.6705 35.1535 23.7038 34.6739 24.5414L31.1935 30.6205C30.7155 31.4554 29.8345 31.9694 28.8814 31.9694H10.8408C9.89439 31.9694 9.01859 31.4626 8.53821 30.6371L4.94362 24.4599C4.45328 23.6173 4.45025 22.5723 4.93571 21.7268L14.0668 5.82299ZM19.2926 11.5394C18.726 11.5394 18.2001 11.8333 17.9031 12.3158L12.3396 21.356C12.0616 21.8077 12.0205 22.3664 12.2295 22.854L13.0301 24.7212C13.2872 25.3209 13.877 25.7098 14.5295 25.7098H25.2119C25.8704 25.7098 26.4644 25.3139 26.7178 24.7061L27.4745 22.8911C27.6758 22.4083 27.6333 21.8581 27.3603 21.4119L21.7978 12.3195C21.5013 11.8349 20.9741 11.5394 20.4061 11.5394H19.2926Z" fill="url(#paint2_linear)" fill-opacity="0.9"/>
<path fill-rule="evenodd" clip-rule="evenodd" d="M30.6114 22.0408C31.0151 22.7489 31.0143 23.6177 30.6094 24.3251L28.9965 27.1422C28.5863 27.8587 27.824 28.3007 26.9984 28.3007H12.7084C11.8887 28.3007 11.1307 27.8648 10.7184 27.1563L9.01765 24.2335C8.60351 23.5218 8.60095 22.6432 9.01094 21.9291L16.2608 9.30176C16.6714 8.58669 17.433 8.14575 18.2576 8.14575H21.3519C22.179 8.14575 22.9425 8.58934 23.3521 9.30782L30.6114 22.0408ZM14.0668 5.82299C14.5452 4.98974 15.4253 4.47705 16.3772 4.47705H23.2388C24.1937 4.47705 25.076 4.99286 25.5534 5.83014L34.6763 21.832C35.1544 22.6705 35.1535 23.7038 34.6739 24.5414L31.1935 30.6205C30.7155 31.4554 29.8345 31.9694 28.8814 31.9694H10.8408C9.89439 31.9694 9.01859 31.4626 8.53821 30.6371L4.94362 24.4599C4.45328 23.6173 4.45025 22.5723 4.93571 21.7268L14.0668 5.82299ZM19.2926 11.5394C18.726 11.5394 18.2001 11.8333 17.9031 12.3158L12.3396 21.356C12.0616 21.8077 12.0205 22.3664 12.2295 22.854L13.0301 24.7212C13.2872 25.3209 13.877 25.7098 14.5295 25.7098H25.2119C25.8704 25.7098 26.4644 25.3139 26.7178 24.7061L27.4745 22.8911C27.6758 22.4083 27.6333 21.8581 27.3603 21.4119L21.7978 12.3195C21.5013 11.8349 20.9741 11.5394 20.4061 11.5394H19.2926Z" fill="url(#paint3_radial)" fill-opacity="0.6"/>
</g>
<path d="M46.4807 26.0486C47.7222 26.0486 48.7344 25.7431 49.4793 25.1128C50.2433 24.4825 50.6253 23.6803 50.6253 22.7062C50.6253 21.5603 50.0332 20.6817 48.8681 20.0705C48.5816 19.9177 47.7413 19.5739 46.3661 19.0582C45.7549 18.8481 45.4493 18.5426 45.4493 18.1033C45.4493 17.6258 45.9268 17.2247 46.6335 17.2247C47.493 17.2247 48.2951 17.5685 49.0209 18.2561L50.3579 16.518C49.4029 15.5248 48.1805 15.0283 46.7099 15.0283C45.5448 15.0283 44.5898 15.3147 43.8832 15.9068C43.1765 16.4989 42.8136 17.2438 42.8136 18.1606C42.8136 19.3829 43.4057 20.2806 44.6089 20.8536C44.8381 20.9682 45.2774 21.1592 45.9459 21.4075C46.6144 21.6558 47.0155 21.8086 47.1874 21.885C47.684 22.1142 47.9323 22.4197 47.9323 22.7826C47.9323 23.3747 47.3211 23.7949 46.4998 23.7949C45.4493 23.7949 44.3607 23.241 43.6158 22.3433L42.1833 24.0432C43.2338 25.3802 44.6662 26.0486 46.4807 26.0486ZM55.0581 13.7295C55.6884 13.0992 55.6884 11.9914 55.0581 11.3803C54.4279 10.75 53.3201 10.75 52.6898 11.3803C52.0595 11.9914 52.0595 13.0992 52.6898 13.7295C53.3201 14.3598 54.4279 14.3598 55.0581 13.7295ZM55.2109 15.372H52.5179V25.7812H55.2109V15.372ZM65.3824 16.5753C64.523 15.6012 63.4725 15.1047 62.2119 15.1047C60.7413 15.1047 59.5189 15.6203 58.5257 16.6708C57.5517 17.7213 57.0551 19.02 57.0551 20.5671C57.0551 22.1333 57.5517 23.432 58.5257 24.4825C59.4998 25.5139 60.7413 26.0295 62.2119 26.0295C63.5298 26.0295 64.5994 25.5139 65.4397 24.5016V25.7812H68.0755V11.2657H65.3824V16.5753ZM65.5161 20.5671C65.5161 21.4266 65.2487 22.1333 64.714 22.7253C64.1792 23.2983 63.4916 23.5848 62.6321 23.5848C61.7726 23.5848 61.0851 23.2983 60.5312 22.7253C59.9964 22.1333 59.729 21.4266 59.729 20.5671C59.729 19.7267 59.9964 19.02 60.5312 18.4471C61.0851 17.855 61.7726 17.5685 62.6321 17.5685C63.4916 17.5685 64.1792 17.855 64.714 18.4471C65.2487 19.02 65.5161 19.7267 65.5161 20.5671ZM80.6196 20.3379C80.6196 18.7145 80.123 17.4539 79.149 16.518C78.1749 15.5821 76.9143 15.1047 75.4055 15.1047C73.8011 15.1047 72.5024 15.6203 71.4901 16.6517C70.4778 17.6831 69.9812 18.9818 69.9812 20.5671C69.9812 22.076 70.4587 23.3747 71.4328 24.4252C72.4069 25.4757 73.8011 26.0104 75.6347 26.0104C77.3536 26.0104 78.8625 25.533 80.1803 24.578L79.1108 22.6871C78.2131 23.2983 76.8761 23.7376 75.7493 23.7376C74.1067 23.7376 73.0944 22.9927 72.7124 21.5221H80.5241C80.5814 21.1019 80.6196 20.7008 80.6196 20.3379ZM75.4055 17.3393C76.7806 17.3393 77.7547 18.1606 78.003 19.5166H72.7124C73.0371 18.1606 74.0494 17.3393 75.4055 17.3393ZM90.2453 16.5753C89.3858 15.6012 88.3354 15.1047 87.0748 15.1047C85.6041 15.1047 84.3818 15.6203 83.3886 16.6708C82.4145 17.7213 81.9179 19.02 81.9179 20.5671C81.9179 22.1333 82.4145 23.432 83.3886 24.4825C84.3627 25.5139 85.6041 26.0295 87.0748 26.0295C88.3927 26.0295 89.4622 25.5139 90.3026 24.5016V25.7812H92.9383V11.2657H90.2453V16.5753ZM90.379 20.5671C90.379 21.4266 90.1116 22.1333 89.5768 22.7253C89.042 23.2983 88.3545 23.5848 87.495 23.5848C86.6355 23.5848 85.9479 23.2983 85.394 22.7253C84.8593 22.1333 84.5919 21.4266 84.5919 20.5671C84.5919 19.7267 84.8593 19.02 85.394 18.4471C85.9479 17.855 86.6355 17.5685 87.495 17.5685C88.3545 17.5685 89.042 17.855 89.5768 18.4471C90.1116 19.02 90.379 19.7267 90.379 20.5671ZM98.0719 25.7812V20.8345C98.0719 18.6763 99.0842 17.6831 100.612 17.6831C100.994 17.6831 101.414 17.7595 101.854 17.8932L102.083 15.3147C101.663 15.162 101.242 15.0856 100.822 15.0856C99.5426 15.0856 98.5876 15.6394 97.9573 16.7663V15.372H95.3789V25.7812H98.0719ZM105.996 13.7295C106.627 13.0992 106.627 11.9914 105.996 11.3803C105.366 10.75 104.258 10.75 103.628 11.3803C102.998 11.9914 102.998 13.0992 103.628 13.7295C104.258 14.3598 105.366 14.3598 105.996 13.7295ZM106.149 15.372H103.456V25.7812H106.149V15.372ZM113.055 22.1142L110.438 15.372H107.477L111.985 25.7622H114.048L118.574 15.372H115.614L113.055 22.1142ZM129.506 20.3379C129.506 18.7145 129.009 17.4539 128.035 16.518C127.061 15.5821 125.801 15.1047 124.292 15.1047C122.688 15.1047 121.389 15.6203 120.376 16.6517C119.364 17.6831 118.868 18.9818 118.868 20.5671C118.868 22.076 119.345 23.3747 120.319 24.4252C121.293 25.4757 122.688 26.0104 124.521 26.0104C126.24 26.0104 127.749 25.533 129.067 24.578L127.997 22.6871C127.099 23.2983 125.763 23.7376 124.636 23.7376C122.993 23.7376 121.981 22.9927 121.599 21.5221H129.411C129.468 21.1019 129.506 20.7008 129.506 20.3379ZM124.292 17.3393C125.667 17.3393 126.641 18.1606 126.889 19.5166H121.599C121.924 18.1606 122.936 17.3393 124.292 17.3393Z" fill="black"/>
<defs>
<filter id="filter0_di" x="4.34349" y="4.47705" width="30.9209" height="27.9987" filterUnits="userSpaceOnUse" color-interpolation-filters="sRGB">
<feFlood flood-opacity="0" result="BackgroundImageFix"/>
<feColorMatrix in="SourceAlpha" type="matrix" values="0 0 0 0 0 0 0 0 0 0 0 0 0 0 0 0 0 0 127 0" result="hardAlpha"/>
<feOffset dy="0.27629"/>
<feGaussianBlur stdDeviation="0.115121"/>
<feComposite in2="hardAlpha" operator="out"/>
<feColorMatrix type="matrix" values="0 0 0 0 0.113725 0 0 0 0 0.113725 0 0 0 0 0.113725 0 0 0 0.08 0"/>
<feBlend mode="normal" in2="BackgroundImageFix" result="effect1_dropShadow"/>
<feBlend mode="normal" in="SourceGraphic" in2="effect1_dropShadow" result="shape"/>
<feColorMatrix in="SourceAlpha" type="matrix" values="0 0 0 0 0 0 0 0 0 0 0 0 0 0 0 0 0 0 127 0" result="hardAlpha"/>
<feOffset dy="0.368387"/>
<feGaussianBlur stdDeviation="0.322338"/>
<feComposite in2="hardAlpha" operator="arithmetic" k2="-1" k3="1"/>
<feColorMatrix type="matrix" values="0 0 0 0 0.982879 0 0 0 0 0.534896 0 0 0 0 0.990104 0 0 0 1 0"/>
<feBlend mode="normal" in2="shape" result="effect2_innerShadow"/>
</filter>
<radialGradient id="paint0_radial" cx="0" cy="0" r="1" gradientUnits="userSpaceOnUse" gradientTransform="translate(17.936 13.8322) rotate(41.5086) scale(4.32478 8.77924)">
<stop stop-color="white" stop-opacity="0.6"/>
<stop offset="1" stop-color="white" stop-opacity="0"/>
</radialGradient>
<radialGradient id="paint1_radial" cx="0" cy="0" r="1" gradientUnits="userSpaceOnUse" gradientTransform="translate(12.8175 8.87949) rotate(38.4694) scale(4.57041 23.9947)">
<stop stop-color="white" stop-opacity="0.63"/>
<stop offset="1" stop-color="white" stop-opacity="0"/>
</radialGradient>
<linearGradient id="paint2_linear" x1="27.7878" y1="31.442" x2="27.3932" y2="27.1321" gradientUnits="userSpaceOnUse">
<stop stop-opacity="0.26"/>
<stop offset="1" stop-color="white" stop-opacity="0"/>
</linearGradient>
<radialGradient id="paint3_radial" cx="0" cy="0" r="1" gradientUnits="userSpaceOnUse" gradientTransform="translate(23.8697 25.5491) rotate(-97.149) scale(2.91174 8.92333)">
<stop stop-opacity="0.26"/>
<stop offset="1" stop-opacity="0"/>
</radialGradient>
</defs>
</svg>
