<?xml version="1.0" standalone="no"?>
<!DOCTYPE svg PUBLIC "-//W3C//DTD SVG 20010904//EN"
 "http://www.w3.org/TR/2001/REC-SVG-20010904/DTD/svg10.dtd">
<svg version="1.0" xmlns="http://www.w3.org/2000/svg"
 width="700.000000pt" height="700.000000pt" viewBox="0 0 700.000000 700.000000"
 preserveAspectRatio="xMidYMid meet">
<metadata>
Created by potrace 1.14, written by Peter Selinger 2001-2017
</metadata>
<g transform="translate(0.000000,700.000000) scale(0.100000,-0.100000)"
fill="#000000" stroke="none">
<path d="M2568 6598 c-126 -31 -241 -102 -323 -199 -31 -36 -507 -841 -686
-1158 -48 -85 -165 -286 -192 -328 -15 -24 -27 -45 -27 -47 0 -3 -20 -38 -44
-78 -24 -40 -119 -203 -211 -363 -93 -159 -222 -382 -288 -495 -66 -113 -130
-223 -142 -245 -22 -37 -134 -231 -248 -425 -27 -47 -60 -103 -72 -125 -13
-22 -77 -133 -144 -248 -139 -238 -156 -273 -176 -358 -19 -85 -13 -235 14
-319 19 -60 93 -194 366 -655 95 -161 198 -336 229 -388 10 -18 57 -97 104
-177 48 -80 93 -158 102 -173 65 -119 132 -215 184 -265 95 -91 216 -151 338
-168 29 -4 1011 -7 2183 -7 1981 0 2135 1 2195 17 136 36 259 116 337 218 32
41 287 473 430 728 11 19 58 100 105 180 382 652 387 662 393 835 5 119 -25
237 -85 335 -10 17 -251 435 -282 490 -11 19 -37 64 -58 100 -21 36 -47 81
-58 100 -11 19 -95 166 -187 325 -92 160 -175 304 -185 320 -160 279 -564 978
-596 1033 -24 40 -44 75 -44 77 0 3 -16 29 -35 59 -19 30 -35 58 -35 61 0 3
-11 22 -23 43 -13 20 -35 57 -49 82 -30 54 -344 597 -398 690 -21 36 -69 119
-108 185 -98 167 -175 243 -312 308 -115 53 -125 54 -1047 54 -794 0 -856 -1
-925 -19z m1392 -822 c125 -26 246 -101 314 -195 30 -41 212 -350 289 -491 16
-30 36 -62 43 -71 8 -8 14 -18 14 -22 0 -3 28 -54 63 -114 35 -59 161 -279
281 -488 120 -209 227 -392 237 -407 11 -15 19 -29 19 -32 0 -3 30 -56 66
-118 37 -62 170 -293 296 -513 127 -220 252 -436 278 -480 176 -301 196 -352
188 -500 -3 -52 -14 -113 -25 -145 -11 -30 -93 -181 -182 -335 -90 -154 -183
-315 -208 -358 -79 -135 -183 -228 -299 -268 -22 -7 -46 -15 -54 -18 -8 -3
-793 -7 -1743 -8 -1909 -4 -1795 -7 -1921 60 -90 48 -163 127 -248 269 -40 67
-75 127 -77 133 -2 5 -27 48 -56 95 -125 206 -244 419 -260 465 -12 32 -19 85
-21 148 -3 141 20 203 158 430 26 43 48 80 48 82 0 3 47 85 272 470 58 99 180
309 272 467 91 159 175 303 186 320 10 18 40 69 65 113 25 44 55 96 67 115 27
47 270 465 295 510 11 19 34 58 51 85 16 28 101 173 189 324 120 209 171 288
214 331 82 84 178 131 295 148 64 10 849 8 894 -2z"/>
<path d="M3322 5009 c-68 -9 -147 -48 -198 -98 -30 -31 -411 -624 -574 -896
-8 -14 -87 -140 -175 -281 -88 -141 -185 -297 -215 -346 -30 -48 -131 -211
-224 -360 -93 -149 -176 -290 -184 -312 -21 -60 -26 -148 -13 -203 12 -46 168
-418 218 -516 44 -88 135 -161 233 -187 64 -18 2560 -18 2642 -1 68 14 160 72
204 127 27 35 91 175 206 454 53 129 61 217 26 310 -14 36 -105 193 -203 350
-97 157 -186 299 -196 317 -10 17 -33 56 -52 85 -19 29 -105 168 -192 308 -87
140 -165 266 -174 280 -8 14 -20 33 -26 43 -35 61 -489 786 -503 803 -34 40
-111 92 -163 109 -40 14 -90 18 -218 19 -91 1 -190 -2 -219 -5z"/>
</g>
</svg>
